<svg xmlns="http://www.w3.org/2000/svg" xmlns:xlink="http://www.w3.org/1999/xlink" width="1920" height="896" viewBox="0 0 1920 896"><defs><style>.a{fill:url(#a);}.b{clip-path:url(#c);}.c{opacity:0.161;mix-blend-mode:multiply;isolation:isolate;}.d{fill:#f96f14;}.e{fill:#fcc048;}.f{fill:#f65349;}.g{fill:#d344b0;}.h{fill:#07b4e5;}.i,.j{opacity:0.2;}</style><linearGradient id="a" x1="0.5" x2="0.5" y2="1" gradientUnits="objectBoundingBox"><stop offset="0" stop-color="#069dbf"/><stop offset="1" stop-color="#034f60"/></linearGradient><clipPath id="c"><rect class="a" width="1920" height="896"/></clipPath></defs><g transform="translate(0 -66)"><rect class="a" width="1920" height="896" transform="translate(0 66)"/><g class="b" transform="translate(0 66)"><g class="c" transform="translate(0 -77.688)"><g transform="translate(992.564 38.491)"><path class="d" d="M734.9,1043.3c2.422,9.306,6.127,17.863,9.077,26.3l50.859-20.245-6.372-17.419-4.916-19.084,10.94-2.445c1.645,6.4,3.19,12.4,4.687,18.22,2.067,5.642,4.068,11.1,6.074,16.582l49.9-19.862c-1.6-5.136-4.073-10.178-5.349-15.8q-1.037-4.186-2.108-8.511a52.121,52.121,0,0,1-1.878-8.854q-.659-4.562-1.338-9.27-.372-2.349-.751-4.736-.088-2.427-.178-4.89c-.161-6.859-.853-12.251-.615-22.587h-.469c.128-28.812.3-61.571.469-98.824h-.469c.128-28.811.3-61.57.469-98.823h-.469q.1-21.608.219-46.246l.032-2.966.158-1.929.248-3.9.183-3.965.7-3.94a89.036,89.036,0,0,1,3.865-16.076l-.446-.148c2.677-8.429,7.28-16.808,13.046-25.093a90.142,90.142,0,0,1,23-22.543l-.27-.383c7.408-4.846,15.705-9.6,25.37-12.505,4.86-1.256,9.823-2.871,15.2-3.348a41.17,41.17,0,0,1,8.158-.816l4.213-.2,2.227-.133,3.479.016v-.47c9.361.464,18.549,1.325,28.268,4.348A99.456,99.456,0,0,1,998.6,627.435l32.1-43.644c-8.926-6.845-18.914-12.134-29.094-16.845l4.449-10.29c10.959,5.047,21.684,10.76,31.287,18.1l7.437,5.6,6.993,6.349c4.917,4.089,9,9.29,13.782,14.37l-8.6,7.2c-4.483-4.726-8.256-9.6-12.848-13.383l-6.494-5.909-6.915-5.2-31.817,43.265a87.964,87.964,0,0,1,20,20.189,97.032,97.032,0,0,1,14.468,28.6l51.75-16.023c-1.989-5.246-3.666-10.627-5.96-15.747-2.6-4.975-4.525-10.308-7.69-14.975l9.688-5.639c3.376,5.03,5.5,10.744,8.266,16.106,2.464,5.507,4.291,11.289,6.4,16.94l52.248-16.177a216.44,216.44,0,0,0-33.259-64.951,207.681,207.681,0,0,0-45.023-44.717l-.026.037a218.86,218.86,0,0,0-65.2-32.745c-21.846-6.68-43.453-8.819-62.684-9.206v.045H938.34l-4.724.176-9.5.456a137.9,137.9,0,0,0-18.473,2,140.137,140.137,0,0,0-17.681,3.417c-5.707,1.538-11.423,2.716-16.794,4.662-21.842,6.938-40.6,17.406-56.862,28.536l31.521,44.753c4.968-3.71,10.479-6.588,15.873-9.976l8.773-4.234a68.847,68.847,0,0,1,9.358-4.019L883.9,565a61.79,61.79,0,0,0-8.718,3.747l-8.165,3.927c-5,3.179-10.133,5.819-14.739,9.277-4.444,3.431-9.172,6.518-13.167,10.494l-6.241,5.664c-1.954,2.014-3.793,4.144-5.7,6.208l-8.334-7.5c2.045-2.219,4.028-4.5,6.131-6.663l6.7-6.095c4.309-4.253,9.366-7.6,14.154-11.276l-31.5-44.716a210.21,210.21,0,0,0-51.609,51.362c-13.033,18.669-22.735,37.83-28.833,56.7l.042.015A209.17,209.17,0,0,0,725.271,673q-.656,4.533-1.3,8.989-.269,4.478-.536,8.881-.212,4.407-.42,8.739l-.171,4.313-.006,3.131c-.008,16.442-.014,31.746-.021,46h.045c-.015,37.607-.032,70.323-.045,98.823h.045c-.015,37.607-.032,70.324-.045,98.824h.045c-.219,8.375.518,21.149,1.078,31.831.174,2.745.263,5.473.522,8.166q.585,4.025,1.158,7.984,1.214,7.909,2.386,15.551a125.965,125.965,0,0,0,3.225,14.846Q733.1,1036.315,734.9,1043.3ZM905.956,546.719c5.977-.826,11.919-2.043,17.931-2.517,5.974-.229,12.181-.8,17.964-.716,6.148.323,12.371.429,18.695,1.091,6.269,1.139,12.893,1.507,19.6,3.551l-2.628,10.9c-6.246-1.936-12.424-2.222-18.246-3.312-5.9-.608-11.629-.695-17.418-1.017-5.9-.08-11.3.482-16.981.673-5.6.438-11.115,1.593-16.68,2.336ZM796.468,656.94c-1.949,5.268-2.936,10.833-4.47,16.231-.949,5.527-1.837,11.086-2.515,16.653l-11.16-1.055c.716-5.985,1.669-11.965,2.7-17.9,1.621-5.813,2.72-11.791,4.8-17.461,2.2-5.8,3.99-11.746,7-17.389,1.395-2.868,2.81-5.779,4.258-8.759l5.29-8.715,9.479,5.984c-1.693,2.783-3.335,5.482-4.938,8.118-1.345,2.776-2.658,5.486-3.95,8.153C800.152,646.033,798.531,651.569,796.468,656.94ZM777.553,913.3h11.209v46.159l.421,8.54c.363,5.68.407,11.393,1.019,17.047l-11.144,1.211c-.641-5.927-.7-11.911-1.078-17.864l-.427-8.933V913.3Zm0-98.823h11.209V886.9H777.553V814.473Zm0-61.42v-37.4h11.209v72.428H777.553Zm324.938-58.538c-.583-13.971-3.426-26.062-6.693-38.008l52.29-16.19a231.436,231.436,0,0,1,9.563,62.851,221.7,221.7,0,0,1-12.171,71.879L1093.849,757c4.158-11.354,6.514-23.27,8.092-35.234L1090.8,720.54c-1.487,11.126-3.653,22.207-7.531,32.759l-51.141-17.876a102.43,102.43,0,0,0,5.685-31.613,113.945,113.945,0,0,0-4.024-28.1l51.3-15.884c3.005,11.094,5.682,22.3,6.211,35.352ZM1080.3,761.421c.993-2.72,1.979-5.419,2.967-8.122l-50.7-17.721c-2.686,8.422-7.438,16.759-13.41,24.9a94.478,94.478,0,0,1-23.261,22.28l30.521,44.76c9.092-6.58,17.906-13.649,25.4-22.047l8.219,7.622c-8.059,9.013-17.512,16.633-27.3,23.687-10.419,6.683-21.154,12.932-34.341,17.609L994.48,843.88c12.3-4.347,22.252-10.18,31.939-16.365l-30.256-44.371a110.88,110.88,0,0,1-25.577,12.105q-3.7.8-7.451,1.818c-2.493.748-5.2.735-7.824,1.256a45.113,45.113,0,0,1-8.185.657l-4.212.243c-1.656.072-4.427,0-6.613.01v.469q-28.584-.127-62.546-.3V919.327l62.546.029v-.044c2.5-.02,4.341.048,7.335-.044l9.5-.416a142.127,142.127,0,0,0,18.492-1.681c6.021-1.012,12.022-1.576,17.738-3.108l16.881-4.377A230.168,230.168,0,0,0,1063.573,882l-.025-.036a213.9,213.9,0,0,0,52.3-50.664c13.376-18.4,23.428-37.429,29.673-56.241L1093.849,757l-3.207,8.747c-1.2,2.875-2.667,5.66-4.018,8.547-2.539,5.871-6.142,11.386-9.757,17.36l-9.387-6.127c3.361-5.581,6.737-10.7,9.079-16.168C1077.812,766.671,1079.19,764.091,1080.3,761.421ZM972.145,861.757a196.458,196.458,0,0,1-35.843,2.86H898.9v-11.21h37.4a184.581,184.581,0,0,0,33.776-2.668Zm-280.3-61.829V920.509a44.655,44.655,0,0,0-14.117,6.2l-31.146-44.96a97.361,97.361,0,0,1,29.97-13.786l-2.882-10.833a108.573,108.573,0,0,0-33.472,15.4L609.346,828a162.126,162.126,0,0,1,77.881-27.844Z" transform="translate(-609.346 -321.154)"/><g transform="translate(302.229)"><path class="d" d="M851.933,243.486a48.711,48.711,0,0,1,83.454,0c23.442,38.2-7.824,83.442-32.764,112.121-.237.271-2.079,2.3-4.031,4.282a7.049,7.049,0,0,1-9.861,0c-1.957-1.986-3.8-4.013-4.038-4.285C859.756,326.927,828.49,281.682,851.933,243.486Zm41.688,54.579A27.564,27.564,0,1,0,866.057,270.5,27.565,27.565,0,0,0,893.621,298.065Z" transform="translate(-843.655 -219.907)"/></g></g><g transform="translate(1127.242 688.951)"><path class="e" d="M965.911,1440.827l-42.5-34.5c-8.047,9.23-15.983,18.546-26.51,27.518l-7.46-8.368c10.073-8.567,17.6-17.451,25.267-26.215l-41.7-33.845c-3.429,4.109-7.395,8-11.153,12.319-4.112,3.983-8.686,7.748-13.117,11.956-5.055,3.433-9.865,7.544-15.355,11-5.7,3.087-11.067,7.222-17.5,9.774l.21.42a170.648,170.648,0,0,1-70.468,17.318l.016.469a116.108,116.108,0,0,1-18.2-.128c-5.762-.453-11.8-.267-17.815-1.625-6.063-1-12.393-1.675-18.624-3.708l-9.634-2.472-9.591-3.621-19.011,50.73c5.4,1.782,10.569,4.3,16.152,5.493l16.539,4.254-2.333,10.965-17.347-4.458c-5.851-1.267-11.284-3.877-16.944-5.756l-8.646-3.171c-2.838-1.193-5.592-2.64-8.446-3.975l-8.674-4.18a66.135,66.135,0,0,1-8.86-4.776l5.541-9.744a61.144,61.144,0,0,0,8.468,4.562l8.275,3.985c2.72,1.273,5.338,2.663,8.042,3.8l8.233,3.007,18.846-50.29a180.62,180.62,0,0,1-61.67-39.669l-37.922,38.688,12.641,11.489c4.219,3.825,9.031,6.927,13.512,10.433l-6.589,9.069c-4.7-3.667-9.733-6.94-14.162-10.942l-13.251-12.043-38.286,39.06a300.459,300.459,0,0,0,103.737,65.961l.016-.042c5.544,2.019,10.986,4.055,16.392,5.875l16.3,4.266c10.637,3.092,21.222,4.473,31.418,6.019,10.171,1.888,20.112,1.932,29.679,2.507a200.638,200.638,0,0,0,26.281.029v-.044a290.455,290.455,0,0,0,119.8-30.257l-24.436-48.983c-5.589,2.514-10.894,5.651-16.866,7.707-5.928,2.154-12.038,4.376-18.53,6.737l-3.311-10.71,17.665-6.43c5.689-1.945,10.72-4.955,16.038-7.335,2.548-1.261,5.16-2.4,7.657-3.759l7.291-4.435c4.772-3.089,9.941-5.588,14.344-9.225l6.461,9.16c-4.632,3.8-10.039,6.453-15.055,9.687l-7.659,4.647c-2.622,1.423-5.361,2.632-8.036,3.956l24.416,48.942A287.031,287.031,0,0,0,965.911,1440.827ZM783.438,1489.76l-17.714,2.7c-5.927.672-11.917.713-17.872,1.093-12.23,1.058-24.2-.26-38.071-.808l1.1-11.156c13.1.488,24.914,1.805,36.591.76,5.675-.37,11.386-.393,17.034-1.034l16.872-2.577ZM548.213,1389.01l-9,6.68c4.133,5.529,7.9,10.837,12.328,15.342,4.31,4.595,8.188,9.347,12.637,13.556l-38.318,39.092c-25.232-25.012-50.817-58.282-68.027-102.387l50.817-20.229c1.8,5.712,4.841,10.9,7.307,16.333a127.184,127.184,0,0,0,8.384,15.8l9.688-5.641a118.32,118.32,0,0,1-7.993-15.071c-2.345-5.181-5.27-10.118-6.972-15.571l50.334-20.036c9.832,26.035,25.034,46.1,40.22,61.347l-37.593,38.354c-4.242-4-7.92-8.545-12.036-12.919C555.747,1399.379,552.165,1394.3,548.213,1389.01Zm200.263,10.014c24.94-28.679,56.206-73.924,32.764-112.12a48.71,48.71,0,0,0-83.454,0c-23.442,38.2,7.824,83.441,32.76,112.12.24.271,2.081,2.3,4.038,4.284a7.048,7.048,0,0,0,9.861,0C746.4,1401.324,748.239,1399.3,748.476,1399.025Zm-9-57.542a27.564,27.564,0,1,1,27.565-27.566A27.565,27.565,0,0,1,739.475,1341.483Z" transform="translate(-457.831 -1263.325)"/></g><g transform="translate(619.91 545.726)"><path class="f" d="M1820.223,1131.934l-31.172-45a95.34,95.34,0,0,0-24.856,24.99l-9.259-6.319a106.536,106.536,0,0,1,27.732-27.886l-30.582-44.147a164.2,164.2,0,0,0-49.06,53.581c-12.953,22.481-20.828,50.868-20.945,79.616h.469c-.128,28.812-.3,61.571-.469,98.823h.469q-.124,21.444-.264,45.9a93.848,93.848,0,0,1-5.979,31.017l50.828,18.745c.922-2.647,2.023-5.238,2.809-7.928l2.09-8.151c1.668-5.378,2.069-11.016,3.037-16.539l11.129,1.35c-1.022,5.953-1.5,12.017-3.269,17.818l-2.262,8.782c-.848,2.9-2.019,5.7-3.017,8.547l51.317,18.925a214.567,214.567,0,0,0,13.181-72.213c.02-16.533.038-31.921.055-46.249h-.045c.015-37.606.032-70.323.045-98.823h-.045c.342-4.61.345-7.888,1.54-11.424a38.917,38.917,0,0,1,3.872-9.566A44.274,44.274,0,0,1,1820.223,1131.934ZM1736.255,1265.6v-35.025h11.21V1303h-11.21Zm16.759-131.4a100.726,100.726,0,0,0-5.55,32.572v37.4h-11.21v-37.4a112.03,112.03,0,0,1,6.185-36.293Zm-42.233,258.951c7.044-10.92,12.619-21.005,16.354-31.9l-50.388-18.583c-5.722,16.315-18.282,33.287-37.261,45.4l.252.4c-7.273,4.9-16.031,8.362-25.559,10.909a88.269,88.269,0,0,1-31.59,2.52l-4.708,53.97c11.186.76,22.492.779,33.579-1.007l1.588,11.1c-11.943,1.909-24.1,1.912-36.142,1.078-6.172-.52-12.282-1.661-18.569-2.686l-9.444-2.424-4.874-1.264-4.856-1.771,3.687-10.587,4.515,1.659,4.534,1.163,8.764,2.259c5.839.926,11.494,2,17.219,2.483l4.668-53.5a98.636,98.636,0,0,1-26.984-6.772,95.154,95.154,0,0,1-26.438-17.321l-36.573,39.966c2.1,1.855,4.093,3.848,6.283,5.6l6.746,5.038c4.341,3.589,9.427,6.07,14.137,9.114l-5.477,9.781c-5.086-3.255-10.538-5.97-15.229-9.81l-7.257-5.432c-2.358-1.885-4.51-4.018-6.772-6.019-9.317-8.213-17.206-17.821-25.151-29.29l9.353-6.178c7.42,10.672,14.715,19.6,23.366,27.2l36.256-39.62c-13.058-11.666-24.009-29.5-27.96-51.52l-53.337,9.49c.65,5.588,2.6,10.906,3.821,16.376,1.736,5.323,3.677,10.6,5.776,15.795l-10.285,4.458c-2.272-5.588-4.364-11.282-6.225-17.021-1.343-5.887-3.4-11.632-4.123-17.645l-53.849,9.581a212.469,212.469,0,0,0,25.291,69,204.157,204.157,0,0,0,40.113,49.757l.031-.033a214.641,214.641,0,0,0,61.828,39.533c21.289,8.876,42.522,13.185,62.26,15.178l0-.045a207.729,207.729,0,0,0,73.023-6.366c22.172-6.026,42.059-14.746,58.694-25.671l-.024-.038A213.322,213.322,0,0,0,1758,1440.071c3.373-4.639,7-8.982,9.845-13.743q4.308-7.115,8.464-13.983c4.787-9.576,9.54-18.787,12.7-28.27l-51.358-18.94c-4.052,11.75-10.041,22.65-17.627,34.359Zm-8.1,27.413c-4.281,4.246-8.792,8.3-13.387,12.2-4.939,3.472-9.446,7.585-14.759,10.5l-7.969,4.838c-2.689,1.579-5.606,2.788-8.455,4.222-5.648,3.011-11.906,5.089-18.47,7.5l-3.5-10.649c6.106-2.254,11.926-4.161,17.16-6.973,2.64-1.335,5.353-2.436,7.842-3.908l7.383-4.489c4.948-2.688,9.106-6.549,13.709-9.75,4.262-3.634,8.454-7.395,12.436-11.335Zm-257.133-101.258c.044,5.947,1.113,11.592,1.969,17.28l52.874-9.408q-.418-3.248-1.005-6.58-.127-3.41-.259-6.936l-.11-1.767-.063-.89,0-1.428q.015-2.938.029-5.923.03-5.972.059-12.139.117-24.67.25-52.576h-.469c.128-28.812.3-61.571.469-98.823h-54.175v35.024H1433.9v-35.024H1379.21c-.015,37.606-.032,70.323-.045,98.823h.045q-.012,28.205-.024,52.827,0,6.165-.006,12.119,0,2.977,0,5.9c-.019.822.035,2.23.091,3.6l.168,4.014c.257,5.329.484,10.567.905,15.692q1.141,7.664,2.242,15.049l53.893-9.588c-.936-6.136-2.056-12.235-2.125-18.632-.146-3.178-.294-6.4-.446-9.706v-9.855h11.21v9.876C1445.261,1313.323,1445.4,1316.339,1445.544,1319.307Zm-.429-80.369v35.025H1433.9v-72.428h11.21Z" transform="translate(-1379.165 -1033.575)"/><g transform="translate(159.502 197.294)"><path class="f" d="M1678.667,1373.638a48.71,48.71,0,0,1,83.454,0c23.442,38.2-7.824,83.441-32.764,112.121-.236.271-2.079,2.3-4.03,4.282a7.048,7.048,0,0,1-9.862,0c-1.956-1.986-3.8-4.013-4.037-4.284C1686.491,1457.079,1655.225,1411.834,1678.667,1373.638Zm41.689,54.578a27.564,27.564,0,1,0-27.566-27.565A27.564,27.564,0,0,0,1720.356,1428.216Z" transform="translate(-1670.39 -1350.059)"/></g></g><g transform="translate(574.594)"><path class="g" d="M1744.15,296.99a162.433,162.433,0,0,1,15.332,30.026l-50.532,19.531a112.339,112.339,0,0,0-16.539-29.164c-6.868-8.037-14.029-15.008-21.651-20.323l-.269.384a104.855,104.855,0,0,0-59.214-19.645l-.008.47a25.261,25.261,0,0,0-4.929-.043l-4.395.226a43.425,43.425,0,0,0-8.534.733c-2.752.511-5.551.595-8.178,1.273q-3.928,1.069-7.771,1.936c-2.567.587-4.9,1.767-7.33,2.522l-3.591,1.216-3.358,1.631-6.591,3.105-6.041,3.662-28.879-45.28c4.955-2.958,9.744-6.188,15.221-8.544l8.183-3.949,8.935-3.3-3.767-10.558-9.538,3.533-8.757,4.213c-5.852,2.542-11,5.97-16.3,9.153a180.441,180.441,0,0,0-28.275,22.4l7.858,7.994a169.321,169.321,0,0,1,26.445-20.938l29.132,45.677a117.592,117.592,0,0,0-25.448,22.008,122.441,122.441,0,0,0-15.628,25.158l.43.188A118.487,118.487,0,0,0,1501.5,374.6c-.753,8.144-.7,26.788-.76,40.53h-53.705v-18.11c.009-6.154-.109-12.6.361-19.032l-11.2-.482c-.487,7.039-.36,13.319-.371,19.49v18.134h-54.74c.209-14.98-.6-26.881,1.086-51.611a236.906,236.906,0,0,1,17.967-69.34l50.114,21.908c-2.441,5.5-4.254,11.272-6.4,16.9-1.656,5.788-3.073,11.654-4.561,17.489l10.984,2.235c1.41-5.448,2.728-10.93,4.264-16.342,2.025-5.252,3.7-10.649,5.982-15.791,4.862-10.451,10.181-20.706,18.12-31.107l-9.014-6.664c-8.45,11.093-14.18,22.069-19.377,33.28l-50.156-21.927a240.655,240.655,0,0,1,32.574-53.193,236.452,236.452,0,0,1,53.566-47.286l-.024-.037L1498.891,186c4.422-2.381,9.085-4.532,13.778-6.807l7.146-3.356,7.531-2.824c5.1-1.8,10.207-3.9,15.6-5.4,21.283-6.5,45.9-9.71,70.414-9.4l-.95,54.687a185.217,185.217,0,0,0-35.913,2.868l2.044,11.022a173.932,173.932,0,0,1,33.674-2.682,160.173,160.173,0,0,1,35.694,4.691l2.676-10.887a171.475,171.475,0,0,0-38.174-5.013l.951-54.731c9.653.454,19.674.7,29.965,2.6,10.369,1.247,20.832,4.058,31.649,6.975a235.3,235.3,0,0,1,64.38,31.337l-31.364,44.808c-4.844-3.581-10.208-6.392-15.294-9.612-5.3-2.856-10.818-5.305-16.221-7.963l-4.37,10.323c5.043,2.5,10.206,4.78,15.16,7.446,4.743,3.03,9.774,5.633,14.3,8.989,9.307,6.8,18.34,14.024,26.961,23.865l8.3-7.534c-9.2-10.478-18.853-18.244-28.833-25.514l31.39-44.845a238.282,238.282,0,0,1,45.7,42.317,232.764,232.764,0,0,1,35.88,61.905l-51.017,19.718a173.622,173.622,0,0,0-16.408-32.123Z" transform="translate(-1335.765 -158.163)"/><g transform="translate(290.946 145.078)"><path class="g" d="M1401.932,632.971l-4.082-10.441c-5.311,1.861-10.5,4.13-16.027,5.282-5.452,1.414-10.876,2.956-16.492,3.568l-8.707-53.471a105.345,105.345,0,0,0,56.089-27.2l36.8,39.112a123.939,123.939,0,0,1-13.357,11.242c-2.395,1.76-4.768,3.637-7.3,5.4l-8.146,4.943,5.682,9.663,8.689-5.284c2.714-1.881,5.256-3.882,7.817-5.766a134.529,134.529,0,0,0,14.3-12.038,176.451,176.451,0,0,0,23.605-27.267l-9.208-6.394a165.255,165.255,0,0,1-22.079,25.5l-37.125-39.455a114.469,114.469,0,0,0,20.885-26.34c4.8-9.362,8.6-18.511,10.567-27.547l-.458-.1a115.68,115.68,0,0,0,2.5-33.576c-.1-2.654-.772-5.175-1.039-7.717l-.484-3.772c-.236-1.231-.634-2.414-.921-3.611q-.869-3.6-1.709-7.072l-2.428-6.6,50.093-19.361c1.989,5.42,4.124,10.774,5.367,16.6.742,2.878,1.5,5.8,2.269,8.8.468,3.059.948,6.189,1.442,9.418l11.1-1.6c-.531-3.444-1.047-6.784-1.551-10.052-.822-3.2-1.624-6.332-2.414-9.414-1.351-6.236-3.612-11.985-5.752-17.794l51.058-19.734,5.039,13.955c1.366,4.842,2.632,9.815,3.919,14.876q.924,3.8,1.863,7.675l1.274,7.928c.76,5.342,1.786,10.77,2.221,16.324a235.837,235.837,0,0,1-4.728,71.264l.044.01c-4.172,18.988-11.606,38.647-22.011,58.459a234.777,234.777,0,0,1-43.851,56.44l.031.032q-5.392,4.859-10.984,9.9l-12.252,9.231a128.166,128.166,0,0,1-13.246,8.783c-4.675,2.7-9.19,5.875-14.3,8.194-19.748,10.548-42.813,18.235-68.008,22.474l-8.792-53.983c6-.676,11.815-2.3,17.648-3.82C1390.693,637.37,1396.253,634.976,1401.932,632.971Zm105.223-122.147c1.6-5.816,2.023-11.872,3.079-17.8.863-5.96.774-12.015,1.193-18.019l-11.209-.152c-.414,5.615-.3,11.284-1.117,16.856-1.009,5.535-1.362,11.2-2.879,16.635-1.6,5.542-2.493,11.281-4.815,16.776a126.552,126.552,0,0,1-7.1,17.181l10.1,4.861A136.968,136.968,0,0,0,1502,528.8C1504.454,522.909,1505.467,516.773,1507.155,510.824Z" transform="translate(-1356.624 -390.886)"/></g><g transform="translate(0 332.566)"><path class="g" d="M1683.459,746.946l-8.769.014-9.148.456-3.855-54.038c15.625-.919,22.035-.406,31.365-.481l25.472.123,46.246.22v-.47c37.253.167,70.012.342,98.823.47v-.47l52.577.25,12.139.059,5.923.029c2.023.016,2.729-.145,4.141-.188l7.347-.271c2.389-.226,4.69-.731,6.987-1.009l8.632,53.007-8.573,1.314c-2.879.349-5.819.343-8.785.539l-9.093.446h-9.875v11.21h9.853l9.688-.46c3.172-.206,6.314-.219,9.4-.587l9.188-1.4,8.8,54.028c-4.794.7-9.675,1.544-14.662,2.055l-15.286.816c-2.459.1-5.518.264-7.549.272l-5.9,0-12.119-.006-52.827-.024v.045c-28.5-.013-61.216-.029-98.823-.045v.045l-46-.021-25.528-.012c-8.189,0-20.025-.1-23.014.292l-3.892-54.556,8.376-.428,8.743-.015h17.513v-11.21Zm142.731,11.21h72.428v-11.21H1826.19Zm-98.823,0h72.428v-11.21h-72.428Z" transform="translate(-1661.687 -691.64)"/></g><g transform="translate(45.316 256.971)"><path class="g" d="M2013.88,618.307c.073-15.1.151-31.03.227-47.93h-54.175V605.4h-11.21V570.377h-54.695c-.007,16.969-.014,32.891-.021,47.93Zm-119.9,248.54h.045c-.015,37.607-.032,70.323-.045,98.824h54.74v-37.4h11.21v37.4h53.705c.128-28.813.3-61.572.469-98.824h-.469c.09-20.191.2-44.311.319-68.567H1894.014C1894,822.71,1893.992,846.817,1893.983,866.847Zm54.74,0v-37.4h11.21v72.427h-11.21Z" transform="translate(-1893.983 -570.377)"/></g><g transform="translate(220.964 153.368)"><g transform="translate(0 0)"><path class="g" d="M1652.767,427.763a48.71,48.71,0,0,1,83.454,0c23.443,38.2-7.824,83.441-32.764,112.12-.237.271-2.078,2.3-4.03,4.282a7.047,7.047,0,0,1-9.861,0c-1.957-1.986-3.8-4.013-4.038-4.285C1660.591,511.2,1629.325,465.959,1652.767,427.763Zm41.689,54.579a27.564,27.564,0,1,0-27.565-27.566A27.564,27.564,0,0,0,1694.456,482.343Z" transform="translate(-1644.489 -404.184)"/></g></g></g><g transform="translate(279.96 183.72)"><g transform="translate(148.539)"><path class="h" d="M2241.577,476.452a48.71,48.71,0,0,1,83.454,0c23.442,38.2-7.824,83.441-32.764,112.121-.238.271-2.079,2.3-4.031,4.281a7.049,7.049,0,0,1-9.861,0c-1.956-1.986-3.8-4.014-4.038-4.285C2249.4,559.893,2218.134,514.648,2241.577,476.452Zm41.689,54.579a27.564,27.564,0,1,0-27.565-27.566A27.564,27.564,0,0,0,2283.265,531.031Z" transform="translate(-2233.299 -452.873)"/></g><path class="h" d="M2404.047,837l.033.029a66.158,66.158,0,0,0-11.987,20.548,32.369,32.369,0,0,0-1.886,6.2,35.337,35.337,0,0,0-1.29,6.605,40.552,40.552,0,0,0-.621,7c-.271,1.4-.164,7.461-.189,11.82h.045c-.006,14.251-.014,29.554-.021,46q0,3.083,0,6.22v3.151l-.143,4.349c-.356,6.187-.381,12.5-1.3,18.867a191.419,191.419,0,0,1-8.9,38.885l.042.014a186.424,186.424,0,0,1-32.45,58.548,188.6,188.6,0,0,1-59.412,48.384l-25.338-48.472c10.626-5.831,20.913-12.538,29.622-21.048l-7.646-8.2c-7.977,7.829-17.437,13.949-27.169,19.313l-25.1-48.011a69.276,69.276,0,0,0,34.276-39.242l-.445-.151a70.806,70.806,0,0,0,3.376-14.1c.49-2.315.241-4.715.544-7,.04-.65.12-.99.143-1.889l.016-3.146q.014-3.133.031-6.217.117-24.672.22-46.248h-.47q.017-3.492.032-6.932c.024-1.318-.032-1.905.058-3.812l.22-5c.341-6.645.588-13.182,1.752-19.577a144.953,144.953,0,0,1,3.68-18.757,139.666,139.666,0,0,1,5.4-17.729,185.961,185.961,0,0,1,34.307-58.529l40.666,35.079c-7.98,9.6-15.224,19.9-20.838,32.955l10.264,4.508c5.1-11.9,11.759-21.337,19.063-30.141,7.152-8.628,15.93-15.726,25.1-22.067l-6.156-9.369c-10.035,6.914-19.6,14.7-27.429,24.115l-41.02-35.386a185.2,185.2,0,0,1,127.2-63.388l3.821,53.569c-12.434,1.013-24.869,3.2-38.042,8.512l4.056,10.451c12-4.858,23.383-6.844,34.784-7.781l3.895,54.6A65.415,65.415,0,0,0,2404.047,837ZM2299.2,1017l9.135,6.5c7.9-11.576,13.916-22.6,17.7-34.521a62.736,62.736,0,0,0,2.629-8.722c.713-2.952,1.613-5.868,2.163-8.855.83-6.016,2.142-11.989,2.182-18.082l-11.19-.668c-.011,5.6-1.26,11.066-1.992,16.588-.5,2.739-1.343,5.407-1.99,8.115a54.933,54.933,0,0,1-2.407,7.994C2311.986,996.264,2306.446,1006.34,2299.2,1017Zm25.68-163.827a179.817,179.817,0,0,0-2.676,36.037v37.4h11.21v-37.4a168.075,168.075,0,0,1,2.448-33.788Zm-103.012,213.833c12.622-2.743,23.453-6.444,33.57-11.787l-24.88-47.595a65.777,65.777,0,0,1-23.7,7.142,72.535,72.535,0,0,1-28.131-2.391l-14.917,52.081c10.695,3.208,21.855,4.479,32.992,4.828l-.111,11.209c-12.128-.358-24.3-1.772-35.969-5.261l-15.06,52.581c53.306,14.984,103.575,5.318,140.328-14.149l-25.358-48.511c-11.054,5.834-22.893,9.9-36.623,12.857Z" transform="translate(-2145.659 -544.128)"/></g><g transform="translate(0 168.637)"><path class="h" d="M2817.3,1049.6c-8.514-8.622-16.494-17.953-22.418-28.6l-47.135,27.745a190.514,190.514,0,0,0,111.375,86.418l15.072-52.624c-11.894-3.642-23.612-8.193-35.364-15.958l6.031-9.45c10.807,7.161,21.544,11.283,32.42,14.632l14.787-51.629a70.835,70.835,0,0,1-40.839-32.3l-46.687,27.481c5.411,9.777,12.768,18.316,20.563,26.24ZM2769.609,861.4c-3.332-10.7-8.924-20.517-15.051-29.818l-44.875,31.267a63.035,63.035,0,0,1,10.509,25.1c.187,2.138.751,4.169.875,6.252.022,2.175.168,3.962.327,6.335q-.005,11.495-.01,22.177h.044q-.005,14.1-.011,27.3c-.047,1.787.088,5.24.23,8.4q.243,4.722.484,9.364c.229,6.189,1.517,12.23,2.344,18.174a190.355,190.355,0,0,0,23.228,62.831l47.174-27.768a127.807,127.807,0,0,1-14.643-35.92l10.882-2.693a116.569,116.569,0,0,0,13.422,32.926l46.282-27.243a70.284,70.284,0,0,1-8.365-23.281c-.136-2.223-.94-4.371-.8-6.72l-.136-3.494-.123-1.765c-.054-.542-.006-2.027-.014-3q.06-13.14.126-27.1h-.47q.051-10.806.1-22.358c-.153-5.472-.424-11.362-.772-17.163-.491-5.832-1.537-11.746-2.446-17.744a182.958,182.958,0,0,0-29.717-71.246l-44.449,30.97c6.722,10.154,12.793,20.916,16.464,32.609Zm6.514,61.314c-.074-11.984.362-24.086-.913-36.738l11.133-1.31c1.413,14.339.891,26.091.99,38.048.115,11.567-.26,23.589.26,34.784l-11.2.447C2775.855,945.854,2776.243,934.478,2776.123,922.711ZM2655.636,714.958c5.368.177,11.142.487,16.54.837,5.458.371,10.8,1.432,16.044,2.209l-9.332,52.887-9.3-1.414-9.527-.509c-6.515-.4-12.619-.112-19.469-.2v11.21c6.674.086,13.273-.2,19.1.195l8.733.455,8.52,1.3a114.707,114.707,0,0,1,31.736,10.364l4.93-10.068a125.919,125.919,0,0,0-34.719-11.336l9.413-53.351a184.187,184.187,0,0,1,119.52,76.928l-44.064,30.7a133.872,133.872,0,0,0-26.792-28.316l-6.923,8.817a122.66,122.66,0,0,1,24.517,25.908l-44.912,31.292a64.4,64.4,0,0,0-42.21-27.078l-.007.044c-1.85-.167-3.667-.729-5.615-.8-1.976-.032-3.864-.152-6-.336l-23.82-.012-52.827-.023V779.977h35.024v-11.21H2579.17V714.592l52.576.249Z" transform="translate(-2579.17 -536.355)"/><g transform="translate(55.697 0)"><path class="h" d="M2839.6,452.257a48.71,48.71,0,0,1,83.454,0c23.442,38.2-7.824,83.441-32.764,112.12-.237.271-2.078,2.3-4.03,4.282a7.048,7.048,0,0,1-9.861,0c-1.958-1.986-3.8-4.013-4.038-4.285C2847.419,535.7,2816.154,490.453,2839.6,452.257Zm41.688,54.578a27.564,27.564,0,1,0-27.565-27.566A27.564,27.564,0,0,0,2881.284,506.835Z" transform="translate(-2831.318 -428.678)"/></g></g><g transform="translate(1542.055 360.147)"><g transform="translate(168.935)"><path class="e" d="M184.3,759.462a48.711,48.711,0,0,1,83.454,0c23.442,38.2-7.824,83.441-32.763,112.121-.238.271-2.08,2.3-4.031,4.282a7.048,7.048,0,0,1-9.861,0c-1.956-1.986-3.8-4.013-4.038-4.284C192.126,842.9,160.859,797.658,184.3,759.462Zm41.689,54.579a27.564,27.564,0,1,0-27.566-27.565A27.564,27.564,0,0,0,225.991,814.041Z" transform="translate(-176.024 -735.883)"/></g><path class="e" d="M86.153,1213.715c-1.444,5.651-2.735,11.328-5.036,16.893-2.214,5.576-3.864,11.6-6.781,17.521l10.254,4.529c3.042-6.2,4.8-12.511,7.117-18.373,2.4-5.852,3.782-11.818,5.3-17.764,3.481-11.468,4.675-23.4,6.573-35.19l-11.153-1.13c-1.84,11.223-2.936,22.6-6.274,33.513L33.7,1200.154c.787-3.343,1.971-6.547,2.494-9.848s1.014-6.557,1.509-9.761c1.455-6.348,1.1-12.745,1.67-18.829q.161-2.321.319-4.6.223-4.823.442-9.569a143.738,143.738,0,0,1,2.242-18.6c.907-6.087,2.75-11.917,4.232-17.683,1.774-5.686,3.9-11.174,6.008-16.527l-.432-.184a160.488,160.488,0,0,1,51.576-65.114,156.815,156.815,0,0,1,67.271-29.073l9.5,52.858a105.558,105.558,0,0,0-36.73,14.111l5.9,9.531a94.374,94.374,0,0,1,32.814-12.609c2.735-.363,5.448-.943,8.2-1.146l8.281-.42,17.493-.019v-11.21l-17.533.019-9.251.465c-3.076.232-6.117.857-9.176,1.278l-9.586-53.32,10.987-1.609c3.639-.4,7.264-.5,10.861-.687l5.372-.2,2.114-.031,1.672.009,6.621.031,25.472.124,46.246.22v-.47c37.252.167,70.011.342,98.823.47v53.705h-37.4v11.21h37.4v54.74c-28.5-.013-61.217-.029-98.823-.045v.045l-46-.021-25.528-.012-6.656,0c-.959.013-2.6-.03-3.013.028l-1.375.123c-.915.09-1.861.011-2.783.109a26.316,26.316,0,0,1-2.744.453l.007.044a36.794,36.794,0,0,0-16.53,7.187,40.582,40.582,0,0,0-13.024,16.312l-50.315-21.444a94.807,94.807,0,0,1,18.1-27.559l-8.177-7.669a104.041,104.041,0,0,0-28.532,69.31l11.206.31a94.776,94.776,0,0,1,7.4-34.392l50.356,21.461c-.394,1.354-.964,2.662-1.442,4.036-.178,1.459-.893,2.8-1,4.337s-.651,3-.531,4.642c-.028.8-.09,1.612-.189,2.43q-.164,3.672-.33,7.41c-.665,10.313-.547,21.035-2.591,31.977q-1.279,8.22-2.6,16.718c-.943,5.651-2.666,11.254-4.053,17.017l.043.011a293.851,293.851,0,0,1-55.6,110.383L51.94,1306.138l10.73-14.348c3.556-4.8,6.336-10.119,9.535-15.157l-9.669-5.672c-3.056,4.794-5.683,9.876-9.078,14.442l-10.222,13.672L1.173,1264.932a174.03,174.03,0,0,0,32.985-64.66Zm156.74-151.045H315.32v-11.21H242.893Z" transform="translate(-1.173 -834.329)"/></g><g class="i" transform="translate(619.92 484.875)"><path d="M1894.245,935.962h119.943c-.077,15.838-.15,31.505-.218,46.171h-53.807V967.127h-11.21v15.006h-54.729C1894.231,967.531,1894.237,951.876,1894.245,935.962Z" transform="translate(-1894.224 -935.962)"/></g><path class="j" d="M1036.324,1041.081h-21.906v11.21h21.906v54.732L989.277,1107V987.076q25.015.122,47.048.229Z" transform="translate(267.698 -470.337)"/></g></g></g></svg>