<svg xmlns="http://www.w3.org/2000/svg" xmlns:xlink="http://www.w3.org/1999/xlink" width="323.736" height="126.657" viewBox="0 0 323.736 126.657"><defs><style>.a{fill:url(#a);}.b{fill:url(#b);}.c{fill:url(#c);}.d{fill:url(#d);}</style><linearGradient id="a" y1="0.5" x2="1" y2="0.5" gradientUnits="objectBoundingBox"><stop offset="0" stop-color="#e55c9d"/><stop offset="0.5" stop-color="#de0079"/><stop offset="1" stop-color="#bb007a"/></linearGradient><linearGradient id="b" y1="0.5" x2="1" y2="0.5" gradientUnits="objectBoundingBox"><stop offset="0" stop-color="#f57e3f"/><stop offset="0.5" stop-color="#f05c12"/><stop offset="1" stop-color="#ca4b1c"/></linearGradient><linearGradient id="c" y1="0.5" x2="1" y2="0.5" gradientUnits="objectBoundingBox"><stop offset="0" stop-color="#ffe18f"/><stop offset="0.5" stop-color="#ffbc00"/><stop offset="1" stop-color="#fd9900"/></linearGradient><linearGradient id="d" y1="0.5" x2="1" y2="0.5" gradientUnits="objectBoundingBox"><stop offset="0.006" stop-color="#7cc7b6"/><stop offset="0.5" stop-color="#00aa98"/><stop offset="1" stop-color="#009272"/></linearGradient></defs><g transform="translate(-67.507 195.285)"><path class="a" d="M67.507-71.36V-193.973H104.64v90.259h46.509V-71.36Z" transform="translate(0 0.711)"/><path class="b" d="M195.333-71.36,190.921-85.7H146.8l-4.411,14.34h-42.1l45.221-122.613h46.692L237.428-71.36Zm-26.472-86.215-12.134,39.523h24.266Z" transform="translate(17.762 0.711)"/><path class="c" d="M201.88-71.36V-146.73l-20.772,20.589-20.957-21.875,46.876-45.957h31.987V-71.36Z" transform="translate(50.191 0.711)"/><path class="d" d="M213.344-79.289l15.626-28.677c6.984,4.963,13.6,6.617,22.61,6.617,15.626,0,26.839-9.192,26.839-21.141v-.55c-6.25,8.088-17.28,12.5-28.493,12.5-22.06,0-43.384-14.522-43.384-40.625,0-26.656,21.875-44.119,50.92-44.119,40.26,0,58.457,27.391,58.457,63.237,0,40.994-26.285,63.42-64.339,63.42C237.609-68.628,223.087-72.672,213.344-79.289ZM278.6-146.938c-.734-8.272-5.882-15.626-18.934-15.626-9.19,0-15.442,4.781-15.442,9.927,0,7.9,9.744,10.661,17.1,10.661C267.573-141.975,273.638-143.078,278.6-146.938Z" transform="translate(75.324)"/></g></svg>