<svg xmlns="http://www.w3.org/2000/svg" xmlns:xlink="http://www.w3.org/1999/xlink" width="1980" height="702" viewBox="0 0 1980 702"><defs><style>.a{fill:url(#a);}.b{fill:url(#b);}.c{clip-path:url(#c);}.d{opacity:0.161;mix-blend-mode:multiply;isolation:isolate;}.e{fill:#f96f14;}.f{fill:#fcc048;}.g{fill:#f65349;}.h{fill:#d344b0;}.i{fill:#07b4e5;}.j,.k{opacity:0.2;}</style><linearGradient id="a" x1="0.5" x2="0.5" y2="1" gradientUnits="objectBoundingBox"><stop offset="0" stop-color="#069dbf"/><stop offset="1" stop-color="#034f60"/></linearGradient><linearGradient id="b" x1="0.5" x2="0.5" y2="1" gradientUnits="objectBoundingBox"><stop offset="0" stop-color="#069dbf"/><stop offset="1" stop-color="#201253"/></linearGradient><clipPath id="c"><rect class="a" width="1973" height="701" transform="translate(0 72)"/></clipPath></defs><g transform="translate(60 -1899)"><rect class="b" width="1920" height="702" transform="translate(0 1899)"/><g class="c" transform="translate(-60 1828)"><g class="d" transform="translate(0 -79.84)"><g transform="translate(389.636 39.557)"><path class="e" d="M1043.805,1058.665c-2.489,9.564-6.3,18.358-9.329,27.027l-52.268-20.805,6.548-17.9,5.052-19.613-11.244-2.513c-1.69,6.573-3.278,12.744-4.817,18.725-2.124,5.8-4.18,11.411-6.243,17.041l-51.28-20.412c1.64-5.278,4.186-10.46,5.5-16.236q1.066-4.3,2.166-8.747a53.566,53.566,0,0,0,1.93-9.1q.677-4.688,1.375-9.527.383-2.414.771-4.867.09-2.494.183-5.025c.166-7.049.877-12.59.632-23.213h.482c-.131-29.61-.311-63.277-.482-101.562h.482c-.131-29.61-.311-63.276-.482-101.561h.482q-.106-22.207-.225-47.528L933,709.8l-.163-1.982-.255-4.01-.188-4.075-.722-4.049a91.5,91.5,0,0,0-3.972-16.521l.458-.153c-2.752-8.662-7.482-17.274-13.407-25.788a92.64,92.64,0,0,0-23.636-23.168l.277-.394c-7.613-4.98-16.14-9.87-26.073-12.852-4.995-1.291-10.095-2.95-15.621-3.441a42.311,42.311,0,0,0-8.384-.839l-4.33-.208-2.289-.137-3.576.016v-.483c-9.62.477-19.063,1.361-29.052,4.468a102.212,102.212,0,0,0-29.266,15.093l-32.985-44.854c9.174-7.035,19.438-12.471,29.9-17.311l-4.572-10.575C753.886,563.725,742.865,569.6,733,577.143l-7.643,5.76-7.186,6.525c-5.054,4.2-9.25,9.547-14.164,14.769l8.834,7.395c4.607-4.857,8.485-9.862,13.2-13.754l6.674-6.073,7.106-5.341,32.7,44.464a90.4,90.4,0,0,0-20.549,20.749A99.72,99.72,0,0,0,737.1,681.029l-53.184-16.467c2.044-5.391,3.768-10.921,6.125-16.183,2.667-5.113,4.651-10.594,7.9-15.39l-9.957-5.8c-3.47,5.169-5.652,11.041-8.495,16.552-2.532,5.66-4.41,11.6-6.582,17.409l-53.7-16.625a222.439,222.439,0,0,1,34.18-66.75,213.435,213.435,0,0,1,46.27-45.956l.027.038a224.924,224.924,0,0,1,67.01-33.652c22.452-6.865,44.657-9.063,64.421-9.461v.046h3.608l4.855.181,9.766.469a141.721,141.721,0,0,1,18.985,2.053,144.018,144.018,0,0,1,18.171,3.511c5.865,1.581,11.74,2.791,17.26,4.792,22.447,7.13,41.73,17.889,58.438,29.326l-32.395,45.993c-5.105-3.813-10.769-6.771-16.313-10.253l-9.016-4.351a70.755,70.755,0,0,0-9.617-4.13l-4.187,10.732a63.5,63.5,0,0,1,8.96,3.851L908.031,575c5.137,3.268,10.414,5.981,15.148,9.534,4.567,3.526,9.426,6.7,13.532,10.785l6.414,5.821c2.009,2.07,3.9,4.259,5.856,6.38l8.565-7.7c-2.1-2.281-4.14-4.626-6.3-6.848l-6.885-6.264c-4.428-4.371-9.625-7.814-14.546-11.588l32.368-45.955a216.035,216.035,0,0,1,53.039,52.785c13.394,19.186,23.365,38.878,29.632,58.273l-.044.015a214.955,214.955,0,0,1,8.9,37.872q.675,4.659,1.338,9.238.277,4.6.551,9.127.218,4.529.432,8.981l.176,4.433.006,3.218c.008,16.9.015,32.626.022,47.271h-.046c.015,38.649.033,72.271.046,101.561h-.046c.015,38.649.033,72.273.046,101.562h-.046c.226,8.607-.532,21.735-1.108,32.713-.179,2.821-.27,5.624-.536,8.392q-.6,4.136-1.19,8.206-1.247,8.128-2.452,15.982a129.429,129.429,0,0,1-3.315,15.257Q1045.661,1051.487,1043.805,1058.665ZM868.014,548.325c-6.143-.849-12.249-2.1-18.427-2.586-6.139-.235-12.519-.821-18.462-.736-6.319.332-12.714.441-19.213,1.121-6.443,1.171-13.25,1.549-20.14,3.649l2.7,11.2c6.419-1.989,12.768-2.283,18.752-3.4,6.063-.625,11.952-.714,17.9-1.046,6.063-.082,11.617.5,17.452.691,5.751.45,11.423,1.638,17.142,2.4ZM980.536,661.6c2,5.414,3.017,11.133,4.594,16.68.976,5.68,1.888,11.394,2.584,17.115l11.469-1.085c-.736-6.151-1.715-12.3-2.78-18.4-1.666-5.974-2.8-12.117-4.936-17.944-2.263-5.956-4.1-12.071-7.2-17.871-1.433-2.947-2.888-5.939-4.376-9l-5.436-8.957-9.741,6.15c1.74,2.86,3.428,5.634,5.075,8.343,1.383,2.853,2.732,5.638,4.059,8.379C976.75,650.391,978.416,656.081,980.536,661.6Zm19.439,263.46h-11.52V972.5l-.433,8.777c-.373,5.837-.418,11.708-1.047,17.519l11.453,1.244c.659-6.091.723-12.241,1.108-18.359l.439-9.181V925.06Zm0-101.562h-11.52v74.435h11.52V823.5Zm0-63.122v-38.44h-11.52v74.435h11.52Zm-333.941-60.16c.6-14.358,3.52-26.784,6.879-39.061l-53.739-16.638a237.849,237.849,0,0,0-9.828,64.592,227.844,227.844,0,0,0,12.508,73.87l53.062-18.548c-4.273-11.669-6.694-23.915-8.316-36.21l11.452-1.259c1.528,11.435,3.754,22.822,7.739,33.667l52.558-18.371a105.267,105.267,0,0,1-5.842-32.489,117.1,117.1,0,0,1,4.136-28.883l-52.724-16.324c-3.089,11.4-5.84,22.919-6.384,36.331Zm22.807,68.76c-1.021-2.8-2.034-5.569-3.05-8.347l52.1-18.212c2.761,8.655,7.644,17.223,13.782,25.587a97.1,97.1,0,0,0,23.906,22.9l-31.366,46c-9.344-6.762-18.4-14.027-26.1-22.658l-8.447,7.833c8.282,9.263,18,17.094,28.055,24.343,10.708,6.868,21.74,13.291,35.292,18.1l4.022-10.8c-12.645-4.467-22.869-10.462-32.824-16.819l31.094-45.6a113.955,113.955,0,0,0,26.285,12.44q3.8.824,7.657,1.869c2.562.768,5.339.755,8.04,1.29a46.358,46.358,0,0,0,8.411.675l4.329.249c1.7.074,4.55,0,6.8.01v.482q29.376-.131,64.279-.308V931.257l-64.279.03v-.046c-2.572-.021-4.462.049-7.538-.045l-9.766-.428a146.06,146.06,0,0,1-19-1.728c-6.188-1.04-12.355-1.62-18.23-3.194l-17.349-4.5A236.545,236.545,0,0,1,706.03,892.9l.026-.037a219.824,219.824,0,0,1-53.751-52.068c-13.747-18.912-24.077-38.466-30.5-57.8l53.1-18.563,3.3,8.99c1.231,2.955,2.741,5.817,4.13,8.783,2.609,6.034,6.312,11.7,10.027,17.841l9.647-6.3c-3.454-5.736-6.924-11-9.331-16.616C691.4,774.372,689.981,771.72,688.84,768.976ZM799.991,872.092a201.9,201.9,0,0,0,36.836,2.939h38.44v-11.52h-38.44a189.7,189.7,0,0,1-34.712-2.742ZM1088.06,808.55V932.472a45.892,45.892,0,0,1,14.509,6.374l32.009-46.206a100.058,100.058,0,0,0-30.8-14.168l2.962-11.133a111.58,111.58,0,0,1,34.4,15.831l31.7-45.767a166.617,166.617,0,0,0-80.039-28.616Z" transform="translate(-609.346 -316.51)"/><g transform="translate(150.114)"><path class="e" d="M937.927,244.139a50.061,50.061,0,0,0-85.766,0c-24.092,39.254,8.041,85.754,33.671,115.228.244.279,2.137,2.362,4.143,4.4a7.245,7.245,0,0,0,10.134,0c2.011-2.041,3.9-4.125,4.15-4.4C929.888,329.893,962.021,283.393,937.927,244.139ZM895.084,300.23a28.328,28.328,0,1,1,28.328-28.33A28.328,28.328,0,0,1,895.084,300.23Z" transform="translate(-843.655 -219.907)"/></g></g><g transform="translate(292.565 708.039)"><path class="f" d="M457.831,1445.745l43.679-35.452c8.27,9.486,16.426,19.06,27.245,28.281l7.666-8.6c-10.353-8.8-18.084-17.935-25.967-26.941l42.854-34.783c3.524,4.223,7.6,8.222,11.462,12.661,4.226,4.093,8.927,7.963,13.481,12.287,5.195,3.528,10.138,7.753,15.781,11.305,5.863,3.172,11.373,7.422,17.982,10.045l-.216.432a175.376,175.376,0,0,0,72.421,17.8l-.017.482a119.322,119.322,0,0,0,18.7-.131c5.922-.465,12.125-.275,18.308-1.67,6.231-1.028,12.737-1.721,19.14-3.811l9.9-2.54,9.857-3.722,19.538,52.135c-5.548,1.832-10.862,4.422-16.6,5.646l-17,4.372,2.4,11.269,17.828-4.582c6.013-1.3,11.6-3.984,17.414-5.916l8.885-3.258c2.916-1.226,5.747-2.713,8.68-4.086l8.914-4.3a67.955,67.955,0,0,0,9.105-4.908l-5.695-10.014a62.847,62.847,0,0,1-8.7,4.688l-8.5,4.1c-2.8,1.308-5.486,2.736-8.265,3.9l-8.461,3.091-19.368-51.683a185.624,185.624,0,0,0,63.379-40.768l38.973,39.76-12.991,11.807c-4.335,3.931-9.281,7.119-13.886,10.722l6.771,9.32c4.835-3.769,10-7.133,14.554-11.245l13.618-12.377,39.347,40.142a308.784,308.784,0,0,1-106.611,67.788l-.017-.043c-5.7,2.075-11.29,4.167-16.846,6.038l-16.753,4.384c-10.932,3.177-21.81,4.6-32.288,6.186-10.452,1.94-20.67,1.985-30.5,2.577a206.194,206.194,0,0,1-27.009.029v-.046a298.5,298.5,0,0,1-123.115-31.1l25.113-50.34c5.744,2.584,11.2,5.808,17.333,7.921,6.093,2.214,12.371,4.5,19.043,6.924l3.4-11.007-18.154-6.608c-5.847-2-11.017-5.093-16.482-7.538-2.618-1.3-5.3-2.471-7.869-3.863l-7.493-4.558c-4.9-3.175-10.217-5.743-14.741-9.481l-6.64,9.414c4.76,3.905,10.317,6.632,15.472,9.955l7.871,4.776c2.695,1.462,5.509,2.7,8.258,4.066l-25.092,50.3A294.982,294.982,0,0,1,457.831,1445.745Zm187.529,50.289,18.205,2.777c6.091.69,12.247.733,18.367,1.123,12.569,1.087,24.874-.267,39.125-.83l-1.129-11.465c-13.458.5-25.6,1.855-37.6.781-5.833-.381-11.7-.4-17.506-1.062l-17.34-2.648ZM887.1,1392.493l9.252,6.865c-4.247,5.683-8.114,11.137-12.669,15.767-4.429,4.722-8.415,9.606-12.988,13.931l39.379,40.175c25.931-25.705,52.225-59.9,69.911-105.223l-52.224-20.789c-1.855,5.87-4.975,11.2-7.51,16.786a130.725,130.725,0,0,1-8.616,16.241l-9.957-5.8a121.6,121.6,0,0,0,8.215-15.489c2.41-5.325,5.416-10.4,7.165-16l-51.729-20.591c-10.1,26.756-25.727,47.374-41.335,63.047l38.635,39.416c4.359-4.116,8.14-8.781,12.37-13.277C879.359,1403.149,883.04,1397.931,887.1,1392.493Zm-205.812,10.292c-25.63-29.474-57.763-75.973-33.672-115.227a50.06,50.06,0,0,1,85.766,0c24.092,39.254-8.04,85.753-33.668,115.227-.247.279-2.138,2.363-4.15,4.4a7.243,7.243,0,0,1-10.135,0C683.427,1405.147,681.534,1403.063,681.291,1402.784Zm9.25-59.136a28.328,28.328,0,1,0-28.329-28.33A28.329,28.329,0,0,0,690.541,1343.648Z" transform="translate(-457.831 -1263.325)"/></g><g transform="translate(882.832 560.847)"><path class="g" d="M1379.165,1134.659l32.035-46.244a97.98,97.98,0,0,1,25.545,25.682l9.516-6.494a109.487,109.487,0,0,0-28.5-28.658l31.43-45.37a168.75,168.75,0,0,1,50.419,55.066c13.312,23.1,21.406,52.278,21.526,81.822h-.482c.131,29.61.311,63.277.482,101.562h-.482q.128,22.039.272,47.168a96.447,96.447,0,0,0,6.145,31.876l-52.237,19.265c-.948-2.72-2.079-5.384-2.887-8.147l-2.148-8.377c-1.714-5.527-2.126-11.322-3.121-17l-11.437,1.387c1.05,6.118,1.541,12.349,3.36,18.312l2.325,9.025c.872,2.978,2.074,5.853,3.1,8.784l-52.738,19.449a220.514,220.514,0,0,1-13.546-74.214c-.02-16.991-.039-32.806-.056-47.531h.046c-.015-38.648-.033-72.272-.046-101.562h.046c-.352-4.738-.355-8.107-1.582-11.741a40,40,0,0,0-3.979-9.831A45.5,45.5,0,0,0,1379.165,1134.659Zm86.294,137.365v-36h-11.52v74.435h11.52Zm-17.224-135.036a103.518,103.518,0,0,1,5.7,33.474V1208.9h11.52v-38.439a115.136,115.136,0,0,0-6.357-37.3Zm43.4,266.126c-7.24-11.223-12.969-21.587-16.807-32.781l51.784-19.1c5.88,16.767,18.789,34.209,38.293,46.657l-.259.407c7.474,5.031,16.475,8.593,26.267,11.211a90.716,90.716,0,0,0,32.465,2.589l4.839,55.465c-11.5.781-23.115.8-34.509-1.035l-1.632,11.4c12.274,1.962,24.769,1.965,37.143,1.108,6.343-.534,12.622-1.707,19.084-2.761l9.705-2.491,5.009-1.3,4.991-1.82-3.789-10.88-4.64,1.705-4.66,1.195-9.007,2.321c-6,.951-11.812,2.06-17.7,2.552l-4.8-54.984a101.37,101.37,0,0,0,27.732-6.96,97.79,97.79,0,0,0,27.171-17.8l37.586,41.073c-2.162,1.907-4.206,3.955-6.457,5.753l-6.933,5.177c-4.461,3.688-9.689,6.238-14.529,9.367l5.628,10.052c5.227-3.345,10.83-6.135,15.651-10.082l7.458-5.583c2.424-1.937,4.635-4.13,6.96-6.186,9.575-8.441,17.682-18.315,25.848-30.1l-9.612-6.35c-7.625,10.968-15.122,20.139-24.014,27.952l-37.26-40.718c13.42-11.989,24.674-30.316,28.735-52.947l54.815,9.753c-.668,5.743-2.675,11.208-3.927,16.83-1.784,5.47-3.779,10.9-5.936,16.233l10.57,4.582c2.335-5.743,4.485-11.595,6.4-17.493,1.38-6.05,3.491-11.954,4.237-18.133l55.341,9.846a218.354,218.354,0,0,1-25.992,70.911,209.813,209.813,0,0,1-41.224,51.136l-.031-.034a220.588,220.588,0,0,1-63.541,40.629c-21.879,9.122-43.7,13.55-63.985,15.6l0-.046a213.489,213.489,0,0,1-75.046-6.542c-22.786-6.193-43.224-15.154-60.321-26.382l.025-.039a219.232,219.232,0,0,1-55.658-50.743c-3.466-4.767-7.191-9.231-10.118-14.124q-4.427-7.312-8.7-14.371c-4.92-9.841-9.8-19.307-13.05-29.054l52.781-19.465c4.164,12.076,10.319,23.277,18.115,35.312Zm8.329,28.172c4.4,4.364,9.036,8.528,13.758,12.54,5.076,3.569,9.708,7.8,15.168,10.8l8.19,4.972c2.764,1.623,5.762,2.865,8.69,4.339,5.8,3.095,12.236,5.23,18.982,7.7l3.6-10.944c-6.275-2.317-12.256-4.276-17.635-7.166-2.713-1.372-5.5-2.5-8.06-4.016l-7.588-4.613c-5.085-2.763-9.358-6.73-14.089-10.02-4.38-3.735-8.688-7.6-12.78-11.649Zm264.257-104.063c-.045,6.111-1.144,11.913-2.023,17.759l-54.339-9.669q.43-3.337,1.033-6.762.131-3.5.266-7.129l.114-1.816.065-.915,0-1.467q-.015-3.019-.029-6.088-.031-6.138-.061-12.476-.12-25.354-.257-54.033h.482c-.131-29.61-.311-63.277-.482-101.561h55.676v35.995h11.521v-35.995h56.21c.015,38.648.033,72.271.046,101.561h-.046q.012,28.987.024,54.291,0,6.336.006,12.455,0,3.06,0,6.066c.02.845-.036,2.292-.093,3.7l-.172,4.125c-.264,5.477-.5,10.859-.93,16.127q-1.173,7.877-2.3,15.466L1773.545,1347c.962-6.306,2.113-12.574,2.184-19.148.151-3.266.3-6.582.459-9.975v-10.128h-11.521V1317.9C1764.516,1321.074,1764.37,1324.173,1764.226,1327.224Zm.441-82.6v36h11.521v-74.435h-11.521Z" transform="translate(-1379.165 -1033.575)"/><g transform="translate(186.578 202.76)"><path class="g" d="M1764.662,1374.292a50.06,50.06,0,0,0-85.766,0c-24.092,39.254,8.041,85.753,33.672,115.228.243.278,2.137,2.361,4.142,4.4a7.244,7.244,0,0,0,10.135,0c2.01-2.041,3.9-4.125,4.149-4.4C1756.622,1460.045,1788.754,1413.546,1764.662,1374.292Zm-42.844,56.09a28.328,28.328,0,1,1,28.33-28.328A28.327,28.327,0,0,1,1721.819,1430.382Z" transform="translate(-1670.39 -1350.059)"/></g></g><g transform="translate(868.391)"><path class="h" d="M1460,300.837a166.926,166.926,0,0,0-15.757,30.858l51.932,20.072a115.451,115.451,0,0,1,17-29.972c7.058-8.259,14.417-15.424,22.25-20.886l.277.395a107.76,107.76,0,0,1,60.855-20.189l.008.483a25.96,25.96,0,0,1,5.065-.044l4.517.232a44.627,44.627,0,0,1,8.771.753c2.828.525,5.705.611,8.405,1.308q4.037,1.1,7.987,1.989c2.638.6,5.037,1.816,7.533,2.592l3.691,1.25,3.451,1.676,6.774,3.191,6.208,3.764,29.679-46.534c-5.093-3.04-10.014-6.36-15.642-8.78l-8.41-4.058-9.183-3.391,3.872-10.851,9.8,3.631,9,4.33c6.015,2.612,11.3,6.136,16.756,9.406a185.447,185.447,0,0,1,29.059,23.016l-8.076,8.215a174.014,174.014,0,0,0-27.177-21.518L1658.7,298.717a120.849,120.849,0,0,1,26.153,22.618,125.827,125.827,0,0,1,16.061,25.855l-.442.193a121.768,121.768,0,0,1,8.9,33.218c.774,8.37.721,27.531.781,41.653h55.193V403.642c-.01-6.325.112-12.95-.371-19.559l11.51-.5c.5,7.234.37,13.688.381,20.03v18.636h56.256c-.215-15.4.616-27.626-1.116-53.041a243.473,243.473,0,0,0-18.465-71.261l-51.5,22.515c2.508,5.655,4.372,11.585,6.575,17.368,1.7,5.948,3.158,11.977,4.687,17.973l-11.288,2.3c-1.449-5.6-2.8-11.233-4.382-16.794-2.081-5.4-3.8-10.944-6.148-16.228-5-10.74-10.463-21.28-18.622-31.969l9.264-6.849c8.684,11.4,14.573,22.681,19.914,34.2l51.545-22.534a247.321,247.321,0,0,0-33.477-54.667,243,243,0,0,0-55.051-48.6l.025-.038-13.033-7.86c-4.545-2.447-9.337-4.658-14.16-7l-7.344-3.449-7.739-2.9c-5.24-1.85-10.49-4.012-16.03-5.554-21.873-6.676-47.17-9.979-72.365-9.663l.976,56.2a190.349,190.349,0,0,1,36.908,2.948l-2.1,11.328a178.752,178.752,0,0,0-34.607-2.756c-11.851.4-23.673,1.466-36.682,4.821l-2.75-11.189c13.878-3.567,26.545-4.735,39.232-5.152l-.977-56.248c-9.921.467-20.219.719-30.8,2.668-10.656,1.282-21.409,4.171-32.526,7.168A241.816,241.816,0,0,0,1464.93,200.2l32.233,46.05c4.978-3.68,10.491-6.569,15.718-9.878,5.445-2.935,11.118-5.452,16.671-8.184l4.491,10.609c-5.182,2.574-10.489,4.912-15.58,7.653-4.875,3.114-10.044,5.789-14.693,9.238-9.565,6.985-18.848,14.412-27.708,24.526l-8.531-7.742c9.454-10.768,19.375-18.75,29.632-26.221l-32.26-46.088c-16.359,11.376-32.171,25.941-46.963,43.49a239.212,239.212,0,0,0-36.874,63.621l52.43,20.264a178.436,178.436,0,0,1,16.863-33.013Z" transform="translate(-1365.407 -158.163)"/><g transform="translate(0 149.098)"><path class="h" d="M1525.345,639.679l4.2-10.73c5.458,1.912,10.786,4.244,16.471,5.428,5.6,1.453,11.178,3.038,16.949,3.667l8.948-54.952a108.264,108.264,0,0,1-57.643-27.954l-37.822,40.2a127.368,127.368,0,0,0,13.728,11.554c2.461,1.809,4.9,3.738,7.507,5.553l8.372,5.08-5.839,9.931-8.93-5.43c-2.79-1.933-5.4-3.989-8.033-5.926a138.248,138.248,0,0,1-14.7-12.372,181.344,181.344,0,0,1-24.259-28.022l9.463-6.571a169.837,169.837,0,0,0,22.691,26.2l38.153-40.548a117.64,117.64,0,0,1-21.464-27.07c-4.935-9.621-8.841-19.024-10.86-28.31l.47-.107a118.883,118.883,0,0,1-2.565-34.506c.1-2.728.793-5.318,1.068-7.931l.5-3.877c.242-1.265.651-2.481.946-3.711q.893-3.7,1.757-7.268l2.495-6.787-51.481-19.9c-2.044,5.57-4.239,11.073-5.516,17.064-.762,2.957-1.538,5.962-2.332,9.04-.481,3.144-.974,6.361-1.482,9.679l-11.4-1.645c.546-3.539,1.076-6.972,1.594-10.33.844-3.291,1.669-6.507,2.481-9.675,1.388-6.409,3.712-12.317,5.911-18.286l-52.473-20.281-5.179,14.342c-1.4,4.976-2.7,10.087-4.027,15.288q-.949,3.909-1.914,7.888l-1.309,8.148c-.781,5.49-1.836,11.069-2.283,16.776a242.367,242.367,0,0,0,4.859,73.239l-.045.01c4.287,19.514,11.928,39.717,22.621,60.078a241.279,241.279,0,0,0,45.066,58l-.031.033q5.541,4.993,11.288,10.171l12.592,9.487a131.705,131.705,0,0,0,13.614,9.026c4.8,2.775,9.445,6.038,14.692,8.421,20.3,10.84,44,18.74,69.892,23.1l9.035-55.479c-6.171-.694-12.143-2.366-18.137-3.926C1536.9,644.2,1531.182,641.739,1525.345,639.679ZM1417.207,514.148c-1.648-5.977-2.079-12.2-3.164-18.291-.887-6.125-.795-12.348-1.226-18.518l11.519-.156c.426,5.77.308,11.6,1.148,17.323,1.037,5.689,1.4,11.515,2.959,17.1,1.64,5.7,2.562,11.593,4.948,17.241a130.052,130.052,0,0,0,7.293,17.657l-10.381,5a140.767,140.767,0,0,1-7.8-18.872C1419.983,526.567,1418.942,520.261,1417.207,514.148Z" transform="translate(-1356.624 -390.886)"/></g><g transform="translate(195.443 341.781)"><path class="h" d="M1958.16,748.478l9.012.015,9.4.469,3.962-55.535c-16.058-.944-22.646-.418-32.234-.495l-26.178.127-47.527.226V692.8c-38.285.172-71.952.351-101.561.483V692.8l-54.034.257-12.476.06-6.087.03c-2.079.017-2.8-.149-4.256-.194l-7.551-.279c-2.455-.233-4.819-.752-7.181-1.037l-8.871,54.476,8.81,1.35c2.959.359,5.98.352,9.028.554l9.345.458h10.148V760h-10.126l-9.956-.473c-3.26-.212-6.489-.225-9.659-.6l-9.442-1.436-9.042,55.525c4.927.723,9.943,1.587,15.068,2.112l15.71.839c2.527.1,5.671.271,7.758.279l6.066,0,12.455-.006,54.291-.024v.046c29.289-.014,62.912-.03,101.561-.046v.046l47.271-.022,26.235-.012c8.416,0,20.58-.1,23.652.3l4-56.068-8.608-.44L1958.16,760h-18V748.478ZM1811.475,760h-74.435V748.478h74.435Zm101.561,0H1838.6V748.478h74.435Z" transform="translate(-1661.687 -691.64)"/></g><g transform="translate(344.267 264.091)"><path class="h" d="M1894.216,619.635c-.075-15.52-.155-31.89-.233-49.258h55.676v36h11.52v-36h56.21c.007,17.439.014,33.8.022,49.258Zm123.219,255.426h-.046c.015,38.649.033,72.272.046,101.562h-56.257v-38.44h-11.52v38.44h-55.193c-.131-29.611-.311-63.278-.482-101.562h.482c-.092-20.75-.208-45.538-.328-70.467H2017.4C2017.415,829.7,2017.427,854.476,2017.436,875.062Zm-56.257,0V836.623h-11.52v74.434h11.52Z" transform="translate(-1893.983 -570.377)"/></g><g transform="translate(184.425 157.617)"><g transform="translate(0 0)"><path class="h" d="M1738.762,428.417a50.06,50.06,0,0,0-85.766,0c-24.092,39.254,8.041,85.753,33.672,115.227.243.279,2.136,2.362,4.142,4.4a7.243,7.243,0,0,0,10.134,0c2.011-2.041,3.9-4.125,4.15-4.4C1730.722,514.17,1762.854,467.671,1738.762,428.417Zm-42.844,56.092a28.328,28.328,0,1,1,28.329-28.33A28.328,28.328,0,0,1,1695.919,484.508Z" transform="translate(-1644.489 -404.184)"/></g></g></g><g transform="translate(1373.899 188.811)"><g transform="translate(56.148)"><path class="i" d="M2327.572,477.105a50.06,50.06,0,0,0-85.766,0c-24.092,39.254,8.041,85.753,33.671,115.228.244.278,2.137,2.362,4.142,4.4a7.244,7.244,0,0,0,10.135,0c2.01-2.041,3.9-4.125,4.15-4.4C2319.531,562.859,2351.664,516.36,2327.572,477.105ZM2284.728,533.2a28.328,28.328,0,1,1,28.329-28.33A28.327,28.327,0,0,1,2284.728,533.2Z" transform="translate(-2233.299 -452.873)"/></g><path class="i" d="M2191.693,840.932l-.034.029a67.989,67.989,0,0,1,12.319,21.117,33.241,33.241,0,0,1,1.938,6.376,36.308,36.308,0,0,1,1.326,6.789,41.669,41.669,0,0,1,.638,7.2c.278,1.435.168,7.668.194,12.148h-.046c.006,14.646.014,30.373.022,47.271q0,3.168,0,6.392v3.238l.147,4.469c.366,6.359.391,12.845,1.331,19.39a196.724,196.724,0,0,0,9.149,39.962l-.043.015a191.588,191.588,0,0,0,33.349,60.171,193.83,193.83,0,0,0,61.058,49.725l26.04-49.815c-10.92-5.993-21.492-12.885-30.443-21.631l7.858-8.426c8.2,8.046,17.92,14.335,27.922,19.848l25.793-49.342a71.2,71.2,0,0,1-35.226-40.329l.457-.155a72.767,72.767,0,0,1-3.469-14.492c-.5-2.379-.248-4.845-.559-7.2-.041-.668-.124-1.017-.147-1.941l-.017-3.233q-.015-3.22-.031-6.389-.12-25.356-.226-47.529h.483q-.017-3.588-.032-7.124c-.025-1.355.032-1.958-.06-3.918l-.226-5.14c-.35-6.829-.6-13.547-1.8-20.12a148.945,148.945,0,0,0-3.782-19.276,143.55,143.55,0,0,0-5.552-18.221,191.113,191.113,0,0,0-35.257-60.15l-41.792,36.051c8.2,9.861,15.646,20.452,21.416,33.868l-10.549,4.633c-5.245-12.231-12.084-21.928-19.591-30.976-7.35-8.867-16.372-16.161-25.792-22.679l6.327-9.629c10.313,7.106,20.143,15.108,28.189,24.783l42.157-36.367a190.325,190.325,0,0,0-130.728-65.144l-3.927,55.053c12.779,1.041,25.558,3.292,39.1,8.748l-4.169,10.74c-12.329-4.993-24.031-7.033-35.748-8l-4,56.113A67.228,67.228,0,0,1,2191.693,840.932Zm107.754,184.986-9.388,6.678c-8.114-11.9-14.3-23.226-18.192-35.478a64.5,64.5,0,0,1-2.7-8.963c-.733-3.034-1.658-6.031-2.223-9.1-.853-6.183-2.2-12.321-2.242-18.583l11.5-.686c.011,5.756,1.295,11.372,2.048,17.048.514,2.815,1.38,5.557,2.045,8.34a56.453,56.453,0,0,0,2.474,8.215C2286.3,1004.607,2292,1014.962,2299.448,1025.919Zm-26.391-168.366a184.782,184.782,0,0,1,2.75,37.036v38.44h-11.521v-38.44a172.734,172.734,0,0,0-2.515-34.724Zm105.866,219.757c-12.971-2.819-24.1-6.623-34.5-12.114l25.569-48.914a67.6,67.6,0,0,0,24.359,7.339,74.545,74.545,0,0,0,28.91-2.457l15.33,53.524c-10.991,3.3-22.46,4.6-33.906,4.961l.114,11.52c12.464-.368,24.969-1.821,36.965-5.406l15.477,54.038c-54.783,15.4-106.445,5.466-144.216-14.541l26.061-49.855c11.36,6,23.527,10.169,37.637,13.213Z" transform="translate(-2145.659 -539.943)"/></g><g transform="translate(1651.635 173.31)"><path class="i" d="M2656.01,1058.887c8.75-8.86,16.951-18.451,23.039-29.391l48.441,28.513a195.793,195.793,0,0,1-114.46,88.812l-15.49-54.082c12.223-3.743,24.266-8.42,36.344-16.4l-6.2-9.712c-11.106,7.36-22.141,11.6-33.318,15.037l-15.2-53.06a72.8,72.8,0,0,0,41.97-33.2l47.981,28.243c-5.561,10.047-13.122,18.823-21.133,26.967Zm49.008-193.422c3.424-10.993,9.171-21.085,15.468-30.644l46.119,32.133a64.779,64.779,0,0,0-10.8,25.8c-.192,2.2-.772,4.285-.9,6.425-.023,2.235-.173,4.072-.336,6.51q.005,11.813.01,22.791h-.045q.005,14.493.011,28.055c.049,1.836-.09,5.385-.237,8.628q-.25,4.853-.5,9.623c-.235,6.361-1.559,12.569-2.409,18.677a195.633,195.633,0,0,1-23.871,64.572l-48.481-28.537a131.345,131.345,0,0,0,15.049-36.915l-11.183-2.768a119.8,119.8,0,0,1-13.794,33.838l-47.565-28a72.232,72.232,0,0,0,8.6-23.926c.139-2.285.966-4.492.822-6.906l.14-3.59.127-1.814c.055-.557.006-2.083.014-3.083q-.061-13.5-.129-27.856h.483q-.052-11.105-.106-22.978c.157-5.624.436-11.677.794-17.638.5-5.994,1.579-12.071,2.514-18.235a188.028,188.028,0,0,1,30.541-73.22l45.681,31.828c-6.908,10.435-13.147,21.5-16.92,33.513Zm-6.695,63.013c.076-12.316-.372-24.753.938-37.756l-11.441-1.347c-1.452,14.737-.916,26.814-1.018,39.1-.119,11.887.267,24.243-.267,35.748l11.512.459C2698.6,952.262,2698.2,940.57,2698.323,928.478Zm123.825-213.509c-5.517.182-11.45.5-17,.86-5.609.381-11.1,1.472-16.489,2.27l9.59,54.353,9.56-1.453,9.791-.523c6.7-.414,12.968-.115,20.009-.208v11.521c-6.859.089-13.641-.2-19.627.2l-8.975.468-8.756,1.341a117.885,117.885,0,0,0-32.615,10.651l-5.067-10.347a129.41,129.41,0,0,1,35.68-11.65l-9.674-54.829a189.291,189.291,0,0,0-122.831,79.059l45.285,31.553a137.579,137.579,0,0,1,27.534-29.1l7.115,9.061a126.062,126.062,0,0,0-25.2,26.625l46.157,32.159a66.179,66.179,0,0,1,43.379-27.828l.008.045c1.9-.171,3.768-.749,5.77-.818,2.031-.033,3.971-.156,6.164-.345l24.48-.012,54.29-.023v-56.21h-35.995V770.268h35.995V714.592l-54.032.256Z" transform="translate(-2579.17 -531.417)"/><g transform="translate(161.543 0)"><path class="i" d="M2925.591,452.911a50.06,50.06,0,0,0-85.766,0c-24.092,39.254,8.041,85.753,33.672,115.227.243.279,2.136,2.362,4.142,4.4a7.243,7.243,0,0,0,10.134,0c2.012-2.041,3.9-4.125,4.15-4.4C2917.551,538.664,2949.683,492.165,2925.591,452.911ZM2882.748,509a28.328,28.328,0,1,1,28.329-28.33A28.328,28.328,0,0,1,2882.748,509Z" transform="translate(-2831.318 -428.678)"/></g></g><g transform="translate(0 370.125)"><g transform="translate(112.021)"><path class="f" d="M270.3,760.115a50.061,50.061,0,0,0-85.767,0c-24.092,39.254,8.041,85.753,33.671,115.228.244.278,2.137,2.362,4.143,4.4a7.243,7.243,0,0,0,10.134,0c2.01-2.041,3.9-4.125,4.15-4.4C262.256,845.869,294.389,799.37,270.3,760.115Zm-42.845,56.091a28.328,28.328,0,1,1,28.33-28.329A28.328,28.328,0,0,1,227.453,816.206Z" transform="translate(-176.024 -735.883)"/></g><path class="f" d="M302.256,1219.711c1.484,5.807,2.811,11.642,5.176,17.361,2.275,5.73,3.971,11.918,6.969,18.007l-10.538,4.655c-3.126-6.376-4.937-12.858-7.314-18.882-2.467-6.014-3.887-12.146-5.447-18.256-3.578-11.786-4.805-24.051-6.755-36.165l11.462-1.161c1.891,11.534,3.017,23.225,6.448,34.442l53.9-13.937c-.809-3.435-2.025-6.728-2.563-10.121s-1.042-6.739-1.551-10.031c-1.5-6.523-1.13-13.1-1.716-19.351q-.165-2.385-.327-4.731-.229-4.957-.454-9.834a147.717,147.717,0,0,0-2.3-19.114c-.932-6.256-2.827-12.247-4.349-18.173-1.823-5.843-4.007-11.483-6.174-16.985l.444-.189c-12.356-28.174-31.25-50.984-53-66.918a161.157,161.157,0,0,0-69.135-29.879l-9.766,54.323a108.482,108.482,0,0,1,37.748,14.5l-6.064,9.8a96.987,96.987,0,0,0-33.723-12.959c-2.811-.373-5.6-.969-8.429-1.178l-8.511-.431-17.978-.019v-11.52l18.019.019,9.507.478c3.162.238,6.286.881,9.43,1.313l9.852-54.8-11.292-1.654c-3.74-.407-7.466-.511-11.162-.706l-5.521-.208-2.172-.032-1.718.009-6.8.032-26.178.127-47.527.226v-.483c-38.284.172-71.951.351-101.561.483v55.193H39.612v11.52H1.173v56.256c29.289-.013,62.913-.03,101.561-.046v.046l47.272-.022,26.235-.012,6.84,0c.986.013,2.67-.031,3.1.029l1.413.127c.94.093,1.912.011,2.86.112a27.029,27.029,0,0,0,2.82.465l-.008.046a37.813,37.813,0,0,1,16.988,7.386,41.707,41.707,0,0,1,13.385,16.764l51.709-22.038a97.435,97.435,0,0,0-18.6-28.323l8.4-7.881a106.923,106.923,0,0,1,29.323,71.231l-11.516.318a97.4,97.4,0,0,0-7.607-35.345l-51.751,22.056c.4,1.391.99,2.736,1.482,4.148.183,1.5.917,2.88,1.026,4.457s.669,3.085.546,4.77c.029.826.092,1.656.194,2.5q.168,3.774.339,7.615c.683,10.6.562,21.617,2.663,32.863q1.315,8.448,2.672,17.182c.969,5.808,2.74,11.565,4.165,17.488l-.044.011a301.993,301.993,0,0,0,57.137,113.441l43.643-35.424-11.028-14.745c-3.655-4.93-6.512-10.4-9.8-15.577l9.937-5.829c3.141,4.927,5.84,10.15,9.33,14.842l10.5,14.05,43.229-35.087a178.852,178.852,0,0,1-33.9-66.451Zm-161.083-155.23H66.739v-11.52h74.434Z" transform="translate(-1.173 -829.813)"/></g><g class="j" transform="translate(1212.813 498.309)"><path d="M2017.49,935.962H1894.224c.079,16.277.155,32.378.224,47.45h55.3V967.99h11.521v15.422h56.246C2017.5,968.406,2017.5,952.317,2017.49,935.962Z" transform="translate(-1894.224 -935.962)"/></g><path class="k" d="M989.277,1042.578h22.513v11.52H989.277v56.249l48.351-.023V987.076q-25.708.125-48.351.235Z" transform="translate(-356.232 -456.02)"/></g></g></g></svg>