<svg xmlns="http://www.w3.org/2000/svg" xmlns:xlink="http://www.w3.org/1999/xlink" width="166.511" height="168.229" viewBox="0 0 166.511 168.229"><defs><style>.a{fill-rule:evenodd;fill:url(#a);}</style><linearGradient id="a" x1="0.5" x2="0.5" y2="1" gradientUnits="objectBoundingBox"><stop offset="0" stop-color="#069dbf"/><stop offset="1" stop-color="#034f60"/></linearGradient></defs><path class="a" d="M466.578,467.415H436.708a4.376,4.376,0,0,1-3.1-1.311L395.05,427.542l-38.611,38.611a4.315,4.315,0,0,1-3.052,1.262H323.522l4.98,8.628h30.247L392,442.793a4.317,4.317,0,0,1,6.1,0l33.25,33.25h30.247l4.984-8.628ZM338.964,510.864V493.608h8.628v17.256ZM442.5,536.748V519.492h8.628v17.256Zm0-25.884V493.608h8.628v17.256Zm17.256,34.512v-60.7H433.875v60.7Zm8.628-63.882v63.882h3.656a4.314,4.314,0,1,1,0,8.628h-46.8V482.143l-30.2-30.2-30.2,30.2v71.84h-46.8a4.3,4.3,0,0,1,0-8.591h3.657v-63.9l-9.217-15.966c-1.7-2.95.073-6.737,3.567-6.737h7.484l15.844-27.442a4.538,4.538,0,0,1,3.884-2.431h38.209l9.269-9.269-.02-33.871h36.241v25.884H399.339l0,7.983,9.273,9.273h38.209a4.538,4.538,0,0,1,3.884,2.431l15.844,27.442h7.484a4.318,4.318,0,0,1,3.726,6.473l-9.375,16.233Zm-11.773-22.706h-18.12l-21.249-21.245h27.1l12.268,21.245Zm-126.279,86.6H356.22V484.671H330.336v60.721Zm8.628-8.644h8.628V519.492h-8.628v17.256Zm33.887-99.206L351.6,458.787h-18.12l12.268-21.245ZM382.1,545.376h8.628v-8.644H382.1v8.644Zm17.256,0h8.628v-8.644H399.36v8.644ZM373.476,554h43.14V511.42a21.57,21.57,0,0,0-43.14,0V554Zm34.512-25.868v-8.644H399.36v8.644Zm-.012-17.272a12.97,12.97,0,0,0-8.616-11.643v11.643Zm-17.244-11.639a13.018,13.018,0,0,0-8.616,11.639h8.616V499.224ZM382.1,519.492v8.644h8.628v-8.644Zm12.942-50.408a5.753,5.753,0,1,1-5.751,5.755,5.752,5.752,0,0,1,5.751-5.755ZM418.34,394.4H399.356v8.628H418.34Z" transform="translate(-311.837 -385.774)"/></svg>