<svg xmlns="http://www.w3.org/2000/svg" xmlns:xlink="http://www.w3.org/1999/xlink" width="136.786" height="157.138" viewBox="0 0 136.786 157.138"><defs><style>.a{fill-rule:evenodd;fill:url(#a);}</style><linearGradient id="a" x1="0.5" x2="0.5" y2="1" gradientUnits="objectBoundingBox"><stop offset="0" stop-color="#0668bf"/><stop offset="1" stop-color="#033460"/></linearGradient></defs><path class="a" d="M243.471,436.237l-38.2-22.056a3.924,3.924,0,0,1-.011-6.789l38.2-22.063a3.926,3.926,0,0,1,3.937,0l37.948,21.911a4.14,4.14,0,0,1,2.219,3.541v37.826a3.937,3.937,0,0,1-7.874,0V417.581l-32.311,18.656a3.9,3.9,0,0,1-3.9,0Zm-28.4-25.448,30.352,17.522,30.356-17.522-30.356-17.526-30.352,17.526Zm80.286,131.149a18.44,18.44,0,0,0,18.459-18.444,19.07,19.07,0,0,0-.633-4.774l-9.467-35.326a19.954,19.954,0,0,0-9.326-12.133L270.031,457.2a42.909,42.909,0,0,0,1.785-12.526V432.859a3.937,3.937,0,0,0-7.874,0v11.811c0,11.93-5.007,23.5-18.519,23.5s-18.515-11.57-18.515-23.5V432.859a3.937,3.937,0,0,0-7.874,0v11.811a42.855,42.855,0,0,0,1.778,12.519l-24.582,14.2a19.659,19.659,0,0,0-9.1,12l-9.467,35.33a19.045,19.045,0,0,0-.633,4.774,18.481,18.481,0,0,0,18.463,18.444Zm0-7.841-7.011,0v-45.53a3.937,3.937,0,0,0-3.937-3.937H206.438a3.937,3.937,0,0,0-3.937,3.937v45.53h-7.007a10.57,10.57,0,0,1-10.589-10.6,10.1,10.1,0,0,1,.356-2.744l9.467-35.326a11.929,11.929,0,0,1,5.463-7.263l23.826-13.752c4.752,7.767,12.3,11.637,21.408,11.637s16.659-3.87,21.411-11.641l23.648,13.652a12.171,12.171,0,0,1,5.637,7.367l9.467,35.326a9.953,9.953,0,0,1,.356,2.744,10.6,10.6,0,0,1-10.585,10.6Zm-84.982-.018V492.5h70.1v41.578Zm31.111-16.852a3.937,3.937,0,1,1,0-7.874h7.874a3.937,3.937,0,0,1,0,7.874Z" transform="translate(-177.03 -384.8)"/></svg>