<svg xmlns="http://www.w3.org/2000/svg" xmlns:xlink="http://www.w3.org/1999/xlink" width="155.612" height="139.303" viewBox="0 0 155.612 139.303"><defs><style>.a{fill-rule:evenodd;fill:url(#a);}</style><linearGradient id="a" x1="0.5" x2="0.5" y2="1" gradientUnits="objectBoundingBox"><stop offset="0" stop-color="#4024a6"/><stop offset="1" stop-color="#201253"/></linearGradient></defs><path class="a" d="M327.731,611.064H307.277a6.29,6.29,0,0,0-6.256,6.256v1.536h51.836c3.969,0,8.1-3.493,9.111-7.26L377.8,552.528H346.4l-14.909,55.644a3.9,3.9,0,0,1-3.76,2.892Zm55.138-66.327a3.9,3.9,0,0,1,3.76,4.9l-6.021,22.473h17.7V579.9h-6.238v83.354h-7.792V579.9h-5.758l-9.034,33.7c-1.913,7.139-9.17,13.043-16.628,13.043h-18.9v8.1a30.471,30.471,0,0,1,11.926,3.647c4.75,2.745,7.693,6.751,7.693,11.372a3.9,3.9,0,0,1-7.792,0c0-1.634-1.451-3.295-3.8-4.647a21.973,21.973,0,0,0-8.03-2.536v7.18a3.9,3.9,0,0,1-7.792,0v-7.18a21.975,21.975,0,0,0-8.026,2.536c-2.346,1.356-3.8,3.013-3.8,4.647a3.9,3.9,0,1,1-7.792,0c0-4.621,2.939-8.627,7.693-11.372a30.471,30.471,0,0,1,11.922-3.647v-8.1H297.125a3.9,3.9,0,0,1-3.9-3.9V617.32A14.092,14.092,0,0,1,306.5,603.295v-7.81H302.15a3.9,3.9,0,0,1,0-7.792h16.485a3.9,3.9,0,0,1,0,7.792h-4.347v7.788h10.46L339.6,547.837a3.9,3.9,0,0,1,3.815-3.1Zm-89.64,27.373v-7.8H273.461a3.9,3.9,0,0,1-3.9-3.9V528.868a3.894,3.894,0,0,1,3.9-3.9h47.332a3.9,3.9,0,0,1,3.9,3.9v31.551a3.9,3.9,0,0,1-3.9,3.9H301.021v7.8h23.668V579.9H242.694V572.11Zm17.221,84.373a3.9,3.9,0,1,0,3.9,3.9,3.9,3.9,0,0,0-3.9-3.9Zm39.233,0a3.9,3.9,0,1,0,3.9,3.9,3.9,3.9,0,0,0-3.9-3.9Zm-19.618,0a3.9,3.9,0,1,0,3.9,3.9,3.9,3.9,0,0,0-3.9-3.9ZM316.9,532.764v23.759H277.357V532.764Zm-38.932,107.9H256.723v14.8h21.242v-14.8Zm-21.242-7.791h21.242v-14.8H256.723v14.8Zm0-22.591h21.242v-14.8H256.723v14.8Zm29.033-22.591v75.563H248.932V587.693Z" transform="translate(-242.694 -524.972)"/></svg>